<?xml version="1.0" standalone="no"?>
<!DOCTYPE svg PUBLIC "-//W3C//DTD SVG 20010904//EN"
 "http://www.w3.org/TR/2001/REC-SVG-20010904/DTD/svg10.dtd">
<svg version="1.0" xmlns="http://www.w3.org/2000/svg"
 width="700.000000pt" height="700.000000pt" viewBox="0 0 700.000000 700.000000"
 preserveAspectRatio="xMidYMid meet">
<metadata>
Created by potrace 1.14, written by Peter Selinger 2001-2017
</metadata>
<g transform="translate(0.000000,700.000000) scale(0.100000,-0.100000)"
fill="#000000" stroke="none">
<path d="M5030 6309 c0 -7 -3 -10 -6 -6 -7 7 -35 -18 -33 -30 4 -15 -13 -43
-22 -37 -5 3 -9 -2 -9 -10 0 -9 -5 -16 -11 -16 -6 0 -8 -9 -4 -22 6 -16 4 -20
-7 -16 -10 4 -21 -8 -34 -38 -10 -24 -30 -49 -44 -56 -14 -7 -28 -17 -32 -23
-5 -6 -12 -4 -18 5 -8 12 -10 13 -10 1 0 -8 -3 -12 -6 -9 -3 3 -17 -6 -32 -21
-35 -35 -60 -67 -45 -58 6 4 0 -17 -14 -45 -14 -29 -29 -54 -34 -56 -5 -2 -9
-8 -9 -14 0 -5 -16 -29 -35 -52 -19 -24 -32 -45 -29 -49 3 -3 -4 -8 -15 -12
-12 -3 -19 -10 -16 -15 3 -5 -3 -13 -12 -19 -10 -6 -15 -11 -11 -11 4 0 -7
-15 -25 -33 -18 -18 -38 -43 -46 -55 -8 -11 -18 -19 -23 -16 -4 3 -8 0 -8 -6
0 -14 -46 -60 -60 -60 -5 0 -10 -7 -10 -15 0 -8 -7 -15 -16 -15 -8 0 -12 -4
-9 -10 3 -5 1 -10 -6 -10 -6 0 -24 -12 -38 -27 -78 -81 -135 -112 -166 -91 -6
4 -28 8 -48 10 -20 1 -37 5 -37 8 0 3 -10 6 -22 7 -22 1 -73 10 -73 13 0 3
-42 10 -73 12 -18 1 -35 5 -38 10 -3 4 -14 3 -26 -3 -11 -6 -18 -7 -15 -1 4 6
-61 9 -173 9 -99 0 -177 -3 -175 -7 2 -3 -14 -6 -35 -5 -22 1 -40 -2 -40 -6 0
-5 -6 -6 -14 -3 -8 3 -23 1 -34 -5 -13 -7 -22 -7 -30 1 -9 9 -12 9 -12 -1 0
-7 -4 -9 -10 -6 -5 3 -10 2 -10 -4 0 -5 -8 -10 -17 -9 -24 0 -67 -10 -100 -24
-32 -13 -52 -19 -70 -20 -7 -1 -13 -4 -13 -8 0 -3 -16 -12 -35 -19 -19 -7 -35
-17 -35 -22 0 -6 -4 -7 -10 -4 -5 3 -10 1 -10 -5 0 -6 -4 -8 -10 -5 -5 3 -10
1 -10 -4 0 -6 -7 -11 -15 -11 -7 0 -19 -8 -24 -17 -6 -10 -11 -15 -11 -10 0
10 -110 -104 -110 -115 0 -5 -4 -7 -9 -4 -5 3 -12 -5 -15 -19 -4 -14 -13 -25
-21 -25 -9 0 -12 -6 -9 -15 4 -8 1 -15 -6 -15 -6 0 -8 -4 -5 -10 3 -5 1 -10
-4 -10 -6 0 -10 -3 -9 -7 1 -5 -4 -19 -12 -33 -8 -14 -15 -34 -15 -45 -1 -11
-6 -19 -12 -18 -6 1 -9 -6 -6 -17 3 -11 1 -20 -5 -20 -6 0 -8 -9 -5 -20 3 -13
0 -20 -8 -20 -11 0 -11 -2 1 -10 8 -5 10 -10 5 -10 -6 0 -12 -12 -13 -27 -3
-40 -10 -71 -18 -85 -5 -7 -3 -8 6 -3 9 6 11 4 4 -6 -10 -17 -13 -208 -3 -215
4 -2 5 -14 1 -26 -3 -12 -1 -19 5 -15 5 4 8 -6 5 -24 -2 -16 0 -29 6 -29 11 0
-14 -57 -34 -78 -7 -6 -16 -21 -19 -32 -4 -11 -10 -18 -15 -15 -5 3 -14 -4
-21 -17 -6 -12 -20 -31 -30 -42 -11 -11 -19 -26 -19 -33 0 -8 -3 -12 -7 -10
-5 3 -14 -1 -21 -9 -7 -8 -10 -14 -6 -14 4 0 -3 -8 -14 -19 -12 -10 -22 -22
-22 -26 0 -7 -12 -22 -62 -76 -10 -10 -18 -23 -18 -28 0 -5 -3 -11 -8 -13 -4
-1 -25 -25 -47 -53 -22 -27 -44 -53 -50 -57 -5 -4 -10 -11 -10 -15 0 -4 -10
-19 -22 -33 -27 -31 -52 -62 -76 -92 -49 -63 -67 -82 -67 -71 0 9 -7 10 -23 4
-14 -6 -30 -5 -41 1 -11 6 -16 6 -13 1 3 -5 -8 -10 -26 -11 -39 -1 -58 -5 -74
-15 -8 -5 -13 -4 -13 2 0 8 -6 8 -18 2 -14 -8 -51 -19 -82 -25 -3 -1 -11 -5
-17 -9 -7 -5 -13 -6 -13 -3 0 3 -15 -1 -34 -9 -18 -8 -36 -11 -40 -8 -3 4 -6
2 -6 -4 0 -10 -36 -26 -52 -24 -5 1 -8 -4 -8 -10 0 -5 -4 -8 -8 -5 -5 3 -20
-5 -33 -17 -13 -12 -24 -20 -24 -18 0 3 -12 -3 -27 -13 -15 -10 -25 -22 -22
-27 3 -5 0 -9 -6 -9 -6 0 -8 -5 -5 -10 3 -5 1 -10 -4 -10 -6 0 -11 -7 -11 -15
0 -8 -4 -15 -9 -15 -6 0 -8 -9 -6 -20 2 -11 0 -20 -6 -20 -5 0 -8 -3 -8 -7 1
-5 0 -10 -1 -13 -2 -7 -8 -31 -12 -50 -2 -8 -8 -21 -12 -29 -7 -11 -6 -12 5
-6 11 7 12 6 3 -6 -6 -8 -11 -25 -12 -39 -1 -14 -4 -35 -6 -46 -4 -15 0 -24
11 -28 10 -4 14 -4 10 0 -4 4 13 19 38 34 25 15 42 30 38 35 -5 4 -2 5 5 1 6
-4 24 1 40 11 40 28 164 81 199 87 7 1 16 5 19 9 4 4 15 7 24 7 13 0 16 -6 13
-25 -3 -13 -8 -23 -12 -22 -3 1 -7 -1 -8 -6 -2 -4 -18 -23 -37 -42 -19 -18
-31 -36 -28 -39 3 -3 0 -6 -6 -6 -7 0 -12 -6 -12 -13 0 -7 -8 -19 -17 -28 -20
-17 -31 -31 -168 -204 -30 -38 -55 -72 -55 -75 0 -3 -10 -11 -23 -19 -12 -7
-19 -10 -15 -6 4 5 0 14 -10 22 -10 9 -11 11 -2 7 13 -7 13 -5 1 9 -7 9 -10
17 -6 17 4 0 2 7 -5 15 -6 8 -9 18 -6 24 3 5 0 12 -6 14 -10 4 -10 6 0 6 10 1
10 6 2 21 -6 11 -8 26 -4 33 5 8 2 7 -9 -2 -9 -7 -15 -17 -12 -21 3 -5 -2 -16
-11 -24 -8 -9 -12 -16 -8 -16 3 0 2 -6 -3 -12 -6 -7 -9 -21 -8 -30 2 -10 -1
-18 -6 -18 -4 0 -6 -7 -2 -15 3 -9 6 -48 7 -88 1 -68 -1 -74 -29 -102 -16 -16
-29 -31 -27 -33 2 -2 -13 -21 -32 -44 -20 -22 -33 -45 -29 -51 3 -6 1 -7 -5
-3 -7 4 -12 3 -12 -2 0 -5 -12 -21 -26 -36 -15 -14 -24 -26 -21 -26 4 0 -6
-13 -21 -29 -15 -16 -38 -43 -52 -61 -14 -18 -33 -41 -43 -51 -9 -11 -14 -19
-10 -19 4 0 -2 -8 -13 -18 -10 -10 -28 -30 -38 -45 -11 -14 -24 -23 -29 -20
-6 3 -7 1 -3 -5 3 -6 -1 -17 -9 -25 -8 -9 -15 -20 -15 -26 0 -5 -12 -19 -26
-30 -15 -12 -24 -21 -20 -21 3 0 -2 -8 -12 -19 -9 -10 -28 -33 -42 -51 -14
-18 -39 -49 -57 -69 -32 -36 -42 -61 -23 -61 6 0 10 -5 10 -12 0 -6 6 -19 14
-27 8 -9 16 -23 18 -31 3 -14 7 -20 35 -54 7 -8 13 -18 13 -21 0 -10 63 -100
72 -103 4 -2 8 -8 8 -13 0 -9 43 -68 75 -105 38 -43 69 -89 67 -98 -2 -6 -1
-8 3 -4 4 3 22 -10 41 -30 100 -106 230 -232 240 -232 2 0 18 -13 34 -29 17
-16 49 -41 73 -57 23 -16 46 -35 50 -41 4 -7 15 -13 22 -13 8 0 15 -4 15 -10
0 -5 7 -10 15 -10 8 0 15 -4 15 -10 0 -5 7 -10 15 -10 8 0 15 -3 15 -8 0 -4
13 -13 28 -20 16 -6 38 -21 49 -31 12 -11 23 -17 26 -15 3 3 15 -3 26 -13 12
-10 24 -16 28 -15 3 2 9 -1 12 -6 3 -6 15 -12 26 -14 11 -1 27 -10 35 -18 8
-8 24 -17 35 -18 11 -2 21 -8 23 -13 2 -5 12 -9 23 -9 10 0 19 -4 19 -8 0 -4
20 -14 45 -21 25 -7 45 -18 45 -24 0 -6 3 -8 6 -4 3 3 25 -3 49 -13 24 -10 46
-16 49 -13 3 4 6 1 6 -6 0 -8 7 -11 15 -7 8 3 15 0 15 -6 0 -6 3 -8 7 -5 3 4
12 2 20 -4 7 -6 13 -8 13 -4 0 4 7 2 15 -5 8 -7 15 -9 15 -4 0 5 5 2 10 -6 9
-13 10 -13 10 0 0 10 3 11 8 4 4 -6 22 -18 40 -27 33 -16 33 -16 45 11 7 15
20 36 30 47 38 42 45 51 62 77 9 15 22 25 28 21 5 -3 7 -2 4 4 -4 6 7 25 23
43 17 19 30 38 30 42 0 5 5 6 10 3 6 -4 9 -3 8 2 -3 9 36 63 84 114 15 16 24
29 20 29 -4 1 4 10 17 20 13 11 20 20 17 20 -4 0 7 13 23 29 16 16 27 32 24
35 -3 3 2 8 11 12 9 3 16 13 16 22 0 8 3 12 7 9 3 -4 14 7 24 23 11 17 24 30
29 30 6 0 8 4 5 10 -3 5 -1 10 5 10 6 0 15 11 22 25 6 13 14 22 18 20 4 -2 12
7 18 20 12 25 65 59 76 48 3 -4 6 -2 6 3 0 6 13 9 30 8 16 -1 27 2 24 7 -4 8
48 13 61 7 2 -2 11 6 20 17 9 11 14 14 10 7 -3 -6 -1 -12 4 -12 6 0 11 4 11 9
0 4 10 8 23 7 12 -1 24 2 27 6 3 4 18 9 34 12 16 3 32 9 35 13 3 5 13 9 21 9
8 0 24 4 35 8 11 5 27 10 35 14 8 3 18 4 23 4 4 -1 7 3 7 8 0 5 3 9 8 8 14 -3
62 14 62 23 0 5 3 8 8 7 15 -3 62 15 62 24 0 5 5 6 10 3 6 -3 13 0 16 9 3 8
12 12 20 9 8 -3 14 -1 14 5 0 9 37 25 53 23 4 -1 7 4 7 9 0 6 6 10 14 10 8 0
16 7 20 15 3 8 12 15 21 15 9 0 21 4 28 10 45 36 66 58 60 63 -3 4 -1 7 6 7 7
0 9 4 6 10 -3 6 1 7 10 4 11 -5 14 -2 8 12 -4 12 -3 15 5 10 8 -5 12 0 12 13
0 12 4 21 8 21 5 0 9 6 10 13 4 37 11 67 18 78 5 8 3 9 -6 4 -9 -6 -11 -4 -5
6 11 18 14 129 3 129 -4 0 -8 -4 -8 -8 0 -20 -78 -87 -110 -94 -7 -2 -22 -11
-32 -21 -10 -10 -23 -15 -28 -12 -6 4 -10 1 -10 -5 0 -6 -4 -8 -10 -5 -5 3
-10 1 -10 -5 0 -6 -4 -8 -10 -5 -5 3 -10 1 -10 -6 0 -7 -3 -9 -6 -6 -4 3 -16
1 -28 -5 -11 -7 -23 -13 -26 -13 -3 -1 -18 -8 -35 -15 -16 -7 -40 -13 -52 -13
-13 0 -23 -3 -23 -7 0 -4 -6 -7 -12 -8 -13 -1 -48 -9 -58 -12 -3 -1 -9 -2 -13
-1 -4 1 -17 -4 -29 -10 -16 -8 -19 -8 -13 1 6 9 3 9 -13 1 -26 -14 -42 -14
-42 0 0 13 54 86 87 115 12 12 20 23 17 26 -3 3 7 15 22 27 15 11 23 21 18 21
-5 1 2 10 15 20 13 11 21 20 17 20 -6 0 10 20 54 70 14 15 34 41 45 56 11 16
28 36 38 46 9 10 17 23 17 29 0 5 4 8 8 5 5 -3 15 7 23 22 8 15 23 36 34 47
11 11 25 29 31 40 22 39 41 29 75 -42 18 -37 37 -71 42 -74 5 -3 8 -9 8 -13
-3 -19 13 -55 22 -49 5 3 7 1 4 -5 -8 -12 2 -42 14 -42 5 0 8 3 7 7 -1 5 4 21
11 37 7 17 14 50 17 75 2 26 6 55 7 66 2 11 1 24 -1 29 -3 5 -6 33 -9 64 -2
30 -8 61 -14 69 -6 7 -9 20 -5 28 3 8 1 15 -4 15 -5 0 -6 7 -3 17 4 11 3 14
-5 9 -7 -4 -12 -2 -12 3 0 6 4 11 10 11 5 0 22 18 36 40 15 22 31 37 37 33 6
-3 7 -1 3 5 -4 7 -2 12 3 12 6 0 11 5 11 12 0 6 7 18 15 27 46 49 85 98 85
109 0 6 7 12 16 12 8 0 13 4 9 9 -3 6 3 14 12 20 10 6 15 11 11 11 -4 0 5 13
20 29 15 16 38 44 52 62 14 18 43 52 65 76 65 69 76 83 69 95 -4 6 -3 9 2 6 5
-3 17 3 27 14 9 10 14 18 10 18 -3 0 4 8 15 19 12 10 22 24 22 30 0 6 7 14 16
18 8 3 13 12 10 19 -3 8 1 14 8 14 12 0 25 23 22 40 0 3 7 16 17 30 9 13 17
33 17 43 0 10 4 16 8 13 4 -2 7 11 7 30 -1 19 2 34 7 34 4 0 8 5 8 11 0 5 -5
7 -12 3 -7 -5 -8 -3 -2 7 5 8 9 26 10 42 1 15 4 30 7 33 3 3 1 18 -3 34 -4 16
-6 31 -3 34 3 2 7 35 8 71 2 37 9 73 15 80 8 10 8 15 0 20 -8 5 -8 11 1 21 6
7 9 21 5 29 -3 8 -1 15 4 15 6 0 10 5 10 11 0 5 -6 7 -12 3 -10 -6 -10 -5 -1
7 11 14 25 71 26 107 0 6 4 12 9 12 4 0 7 3 6 8 -4 15 14 92 20 88 4 -2 8 6 8
17 3 41 15 82 27 89 7 4 9 8 5 8 -5 0 1 24 13 53 11 28 21 58 22 65 0 6 5 12
10 12 5 0 7 9 4 21 -3 12 -3 18 0 15 6 -5 32 37 37 59 6 24 30 65 38 65 5 0 7
4 4 9 -3 5 4 20 15 35 11 14 17 30 14 36 -3 5 -3 10 2 10 11 0 44 60 38 70 -3
4 2 11 11 14 8 3 12 10 9 16 -3 5 -2 10 4 10 5 0 13 9 16 21 4 11 22 48 42 82
19 34 35 66 36 71 1 6 10 19 19 30 10 10 14 24 11 29 -4 7 1 8 13 3 25 -11 84
-25 84 -21 0 2 12 -2 26 -10 15 -7 33 -11 42 -8 8 4 13 2 10 -3 -4 -5 6 -10
20 -11 39 -2 72 -11 88 -24 11 -9 14 -9 14 1 0 10 3 10 15 0 8 -6 19 -9 25 -5
5 3 10 2 10 -2 0 -5 9 -10 20 -11 42 -4 50 -6 50 -12 0 -4 6 -7 13 -8 30 -2
83 -15 98 -23 9 -4 19 -6 22 -3 3 3 12 2 19 -2 7 -5 18 -9 23 -11 6 -1 21 -5
35 -8 14 -3 39 -9 55 -11 17 -3 32 -10 33 -15 2 -5 7 -7 11 -5 4 3 25 0 47 -5
21 -6 45 -11 52 -11 6 -1 12 -6 12 -11 0 -5 6 -4 14 2 10 8 16 8 24 -2 6 -7
25 -14 43 -15 17 -1 37 -6 43 -9 12 -8 18 -9 59 -11 16 -1 26 -6 23 -10 -3 -5
1 -9 9 -9 8 0 11 5 8 11 -4 6 2 4 13 -5 10 -9 25 -14 32 -12 6 3 12 1 12 -4 0
-6 6 -10 13 -10 7 0 25 -3 40 -7 17 -4 27 -2 27 4 0 6 -4 9 -9 5 -5 -3 -12 -1
-16 5 -4 6 -10 8 -15 5 -5 -3 -15 2 -24 10 -8 9 -18 16 -21 15 -3 0 -24 8 -48
19 -65 29 -81 34 -96 32 -7 -1 -10 2 -7 7 3 5 -16 17 -42 27 -26 10 -54 23
-62 30 -8 7 -21 10 -27 8 -7 -3 -13 0 -13 6 0 6 -8 11 -18 11 -10 0 -24 6 -30
13 -7 6 -16 12 -20 12 -17 2 -52 17 -52 24 0 4 -10 8 -22 8 -13 1 -24 7 -26
13 -2 5 -8 7 -13 4 -6 -3 -21 2 -34 10 -14 9 -25 13 -25 9 0 -4 -7 2 -16 13
-8 10 -13 13 -9 7 3 -7 1 -13 -4 -13 -6 0 -11 5 -11 10 0 6 -9 10 -19 10 -11
0 -26 6 -33 13 -7 8 -21 13 -31 11 -9 -1 -17 2 -17 7 0 5 -9 9 -20 9 -11 0
-20 4 -20 9 0 5 -7 12 -16 15 -10 4 -13 2 -8 -6 4 -6 -3 -4 -17 5 -13 9 -31
17 -41 17 -10 0 -18 5 -18 12 0 6 -3 8 -7 5 -3 -4 -12 -2 -19 4 -8 6 -21 9
-29 5 -9 -3 -13 -2 -10 4 3 6 -3 10 -14 10 -12 0 -21 5 -21 11 0 5 -4 7 -10 4
-5 -3 -10 -2 -10 4 0 6 -7 8 -15 5 -8 -4 -15 -1 -15 5 0 6 -10 11 -22 11 -14
0 -18 3 -12 8 6 4 14 17 18 30 4 12 12 20 17 16 5 -3 8 -1 7 4 -4 12 28 56 80
108 23 24 42 46 42 50 0 15 140 133 140 117 1 -4 8 4 16 20 8 15 18 27 23 27
9 0 12 16 14 82 1 25 5 44 9 42 5 -3 8 0 8 6 0 6 5 8 10 5 6 -3 10 -1 10 4 0
14 87 100 94 94 3 -3 8 6 12 21 4 15 13 26 23 26 10 0 23 11 29 25 8 17 8 25
1 25 -6 0 -8 4 -4 10 7 11 -225 240 -244 240 -4 0 -13 9 -21 20 -8 11 -19 20
-24 20 -5 0 -16 8 -25 18 -9 10 -34 30 -56 45 -22 15 -35 27 -30 27 6 1 -3 7
-20 16 -41 20 -70 37 -89 53 -9 7 -16 10 -16 5 0 -5 -4 -4 -8 1 -14 20 -72 47
-72 34z m-1346 -1251 c-4 -7 -3 -8 5 -4 21 13 60 16 67 5 4 -8 8 -8 13 0 8 12
51 3 51 -11 0 -5 -5 -6 -10 -3 -6 3 -13 -1 -16 -9 -3 -9 -13 -16 -20 -16 -8 0
-17 -7 -20 -15 -4 -8 -10 -12 -15 -10 -4 3 -17 -3 -29 -15 -11 -11 -20 -18
-20 -15 0 6 -114 -57 -121 -67 -3 -5 -10 -8 -15 -7 -5 1 -22 -3 -39 -10 -16
-7 -32 -12 -34 -11 -2 1 -7 -2 -10 -7 -8 -11 -114 -63 -129 -63 -7 0 -12 -5
-12 -12 0 -6 -3 -8 -6 -5 -4 3 -15 2 -26 -4 -20 -11 -53 -20 -75 -21 -7 -1
-13 -5 -13 -10 0 -4 -3 -7 -7 -6 -5 0 -16 -2 -25 -5 -10 -4 -26 -10 -35 -14
-10 -3 -21 -5 -25 -5 -5 1 -8 -3 -8 -9 0 -5 -4 -8 -9 -4 -5 3 -12 1 -16 -5 -6
-10 -65 -14 -65 -4 0 3 7 13 16 21 11 12 12 18 4 23 -8 5 -8 9 3 13 8 3 17 18
20 34 3 15 16 38 29 50 58 56 78 73 86 73 5 0 21 11 36 25 15 14 32 23 37 20
5 -4 9 -2 9 4 0 10 104 46 128 44 6 0 12 3 12 9 0 5 4 7 9 3 5 -3 12 -2 15 3
2 4 19 9 37 10 18 2 36 6 39 11 3 4 15 7 28 6 12 -1 22 1 22 4 0 3 26 7 57 9
32 2 59 5 62 7 9 10 22 4 15 -7z"/>
<path d="M1411 3112 c-6 -11 -6 -24 0 -33 7 -12 9 -11 9 3 0 9 6 19 13 21 9 4
9 6 -1 6 -7 1 -10 6 -7 11 3 6 4 10 1 10 -3 0 -10 -8 -15 -18z"/>
<path d="M3844 2135 c1 -8 6 -18 11 -22 4 -4 5 -2 1 5 -4 6 -2 12 4 12 6 0 8
5 5 10 -9 15 -24 12 -21 -5z"/>
</g>
</svg>
